<svg fill="none" height="495" viewBox="0 0 945 495" width="945" xmlns="http://www.w3.org/2000/svg" xmlns:xlink="http://www.w3.org/1999/xlink"><linearGradient id="paint0_linear_136_3673" gradientUnits="userSpaceOnUse" x1="472.93" x2="472.93" y1="0" y2="495"><stop offset="0" stop-color="#edf3ff"/><stop offset="1" stop-color="#bdd4ff"/></linearGradient><radialGradient id="paint1_radial_136_3673" cx="0" cy="0" gradientTransform="matrix(191.06979211 -113.91763186 21.06957944 35.33921921 551.361 282.074)" gradientUnits="userSpaceOnUse" r="1"><stop offset="0" stop-color="#4c6dcc"/><stop offset=".135564" stop-color="#4f6fcc" stop-opacity=".98"/><stop offset=".29" stop-color="#5977cf" stop-opacity=".93"/><stop offset=".43" stop-color="#6985d4" stop-opacity=".83"/><stop offset=".56" stop-color="#8198db" stop-opacity=".7"/><stop offset=".7" stop-color="#9fb1e3" stop-opacity=".53"/><stop offset=".83" stop-color="#c4cfee" stop-opacity=".33"/><stop offset=".96" stop-color="#eff2fa" stop-opacity=".09"/><stop offset="1" stop-color="#ffffff" stop-opacity="0"/></radialGradient><linearGradient id="lg1"><stop offset="0" stop-color="#4c6dcc"/><stop offset=".15" stop-color="#4f6fcc" stop-opacity=".98"/><stop offset=".29" stop-color="#5977cf" stop-opacity=".93"/><stop offset=".43" stop-color="#6985d4" stop-opacity=".83"/><stop offset=".56" stop-color="#8198db" stop-opacity=".7"/><stop offset=".7" stop-color="#9fb1e3" stop-opacity=".53"/><stop offset=".83" stop-color="#c4cfee" stop-opacity=".33"/><stop offset=".96" stop-color="#eff2fa" stop-opacity=".09"/><stop offset="1" stop-color="#ffffff" stop-opacity="0"/></linearGradient><radialGradient id="paint2_radial_136_3673" cx="0" cy="0" gradientTransform="matrix(92.95345391 -46.17829221 15.84602545 31.89686594 474.915 320.655)" gradientUnits="userSpaceOnUse" r="1" xlink:href="#lg1"/><radialGradient id="paint3_radial_136_3673" cx="0" cy="0" gradientTransform="matrix(245.87694051 -139.20453451 19.22267863 33.95301329 419.94 94.2531)" gradientUnits="userSpaceOnUse" r="1"><stop offset="0" stop-color="#305eb2"/><stop offset="1" stop-color="#305eb2" stop-opacity="0"/></radialGradient><radialGradient id="paint4_radial_136_3673" cx="0" cy="0" gradientTransform="matrix(57.7258354 49.38778831 -66.67782761 77.9349194 385.705 312.571)" gradientUnits="userSpaceOnUse" r="1" xlink:href="#lg1"/><linearGradient id="paint5_linear_136_3673" gradientUnits="userSpaceOnUse" x1="340.761" x2="645.646" y1="338.675" y2="162.65"><stop offset="0" stop-color="#77a7ff"/><stop offset="1" stop-color="#4687ff"/></linearGradient><linearGradient id="lg2"><stop offset="0" stop-color="#77a7ff"/><stop offset="1" stop-color="#bdd4ff"/></linearGradient><linearGradient id="paint6_linear_136_3673" gradientUnits="userSpaceOnUse" x1="492.134" x2="492.133" xlink:href="#lg2" y1="347.12" y2="139.598"/><linearGradient id="paint7_linear_136_3673" gradientUnits="userSpaceOnUse" x1="578.8" x2="578.57" xlink:href="#lg2" y1="230.609" y2="163.809"/><linearGradient id="lg3"><stop offset="0" stop-color="#4687ff"/><stop offset="1" stop-color="#77a7ff"/></linearGradient><linearGradient id="paint8_linear_136_3673" gradientUnits="userSpaceOnUse" x1="556.56" x2="598.28" xlink:href="#lg3" y1="231.099" y2="201.799"/><linearGradient id="paint9_linear_136_3673" gradientUnits="userSpaceOnUse" x1="522.41" x2="565.32" xlink:href="#lg3" y1="223.059" y2="227.499"/><linearGradient id="paint10_linear_136_3673" gradientUnits="userSpaceOnUse" x1="473.4" x2="494.48" y1="252.519" y2="220.789"><stop offset="0" stop-color="#4687ff" stop-opacity="0"/><stop offset=".5" stop-color="#4687ff" stop-opacity=".7"/><stop offset="1" stop-color="#4687ff" stop-opacity="0"/></linearGradient><radialGradient id="paint11_radial_136_3673" cx="543.262" cy="213.05" gradientUnits="userSpaceOnUse" r="56.13"><stop offset="0" stop-color="#ffffff"/><stop offset="1" stop-color="#ffffff" stop-opacity="0"/></radialGradient><linearGradient id="paint12_linear_136_3673" gradientUnits="userSpaceOnUse" x1="424.09" x2="447.76" xlink:href="#lg3" y1="180.33" y2="195.72"/><linearGradient id="paint13_linear_136_3673" gradientUnits="userSpaceOnUse" x1="662.351" x2="662.351" xlink:href="#lg2" y1="157.969" y2="162.299"/><linearGradient id="paint14_linear_136_3673" gradientUnits="userSpaceOnUse" x1="654.981" x2="668.851" xlink:href="#lg3" y1="166.3" y2="156.56"/><linearGradient id="paint15_linear_136_3673" gradientUnits="userSpaceOnUse" x1="643.621" x2="657.891" xlink:href="#lg3" y1="163.63" y2="165.1"/><linearGradient id="paint16_linear_136_3673" gradientUnits="userSpaceOnUse" x1="738.67" x2="738.52" xlink:href="#lg2" y1="85.5995" y2="61.2695"/><linearGradient id="paint17_linear_136_3673" gradientUnits="userSpaceOnUse" x1="731.2" x2="745.07" xlink:href="#lg3" y1="75.5897" y2="65.8497"/><linearGradient id="paint18_linear_136_3673" gradientUnits="userSpaceOnUse" x1="719.84" x2="734.11" xlink:href="#lg3" y1="72.9197" y2="74.3897"/><linearGradient id="paint19_linear_136_3673" gradientUnits="userSpaceOnUse" x1="579.16" x2="579.16" xlink:href="#lg2" y1="161.549" y2="133.139"/><linearGradient id="paint20_linear_136_3673" gradientUnits="userSpaceOnUse" x1="567.85" x2="589.13" xlink:href="#lg3" y1="157.49" y2="142.55"/><linearGradient id="paint21_linear_136_3673" gradientUnits="userSpaceOnUse" x1="550.44" x2="572.32" xlink:href="#lg3" y1="153.39" y2="155.65"/><linearGradient id="lg4"><stop offset="0" stop-color="#bdd4ff"/><stop offset="1" stop-color="#edf3ff"/></linearGradient><linearGradient id="paint22_linear_136_3673" gradientUnits="userSpaceOnUse" x1="441.434" x2="430.946" xlink:href="#lg4" y1="166.141" y2="237.045"/><linearGradient id="paint23_linear_136_3673" gradientUnits="userSpaceOnUse" x1="445.343" x2="433.988" xlink:href="#lg4" y1="162.607" y2="239.341"/><linearGradient id="paint24_linear_136_3673" gradientUnits="userSpaceOnUse" x1="449.238" x2="437.883" xlink:href="#lg4" y1="163.172" y2="239.907"/><linearGradient id="paint25_linear_136_3673" gradientUnits="userSpaceOnUse" x1="453.136" x2="441.781" xlink:href="#lg4" y1="163.749" y2="240.493"/><linearGradient id="paint26_linear_136_3673" gradientUnits="userSpaceOnUse" x1="457.031" x2="445.676" xlink:href="#lg4" y1="164.325" y2="241.069"/><linearGradient id="paint27_linear_136_3673" gradientUnits="userSpaceOnUse" x1="460.927" x2="449.572" xlink:href="#lg4" y1="164.9" y2="241.644"/><linearGradient id="paint28_linear_136_3673" gradientUnits="userSpaceOnUse" x1="464.834" x2="453.479" xlink:href="#lg4" y1="165.476" y2="242.21"/><linearGradient id="paint29_linear_136_3673" gradientUnits="userSpaceOnUse" x1="468.73" x2="457.375" xlink:href="#lg4" y1="166.061" y2="242.795"/><linearGradient id="paint30_linear_136_3673" gradientUnits="userSpaceOnUse" x1="472.625" x2="461.27" xlink:href="#lg4" y1="166.637" y2="243.371"/><linearGradient id="paint31_linear_136_3673" gradientUnits="userSpaceOnUse" x1="476.513" x2="465.158" xlink:href="#lg4" y1="167.213" y2="243.947"/><linearGradient id="paint32_linear_136_3673" gradientUnits="userSpaceOnUse" x1="480.42" x2="469.065" xlink:href="#lg4" y1="167.789" y2="244.523"/><linearGradient id="paint33_linear_136_3673" gradientUnits="userSpaceOnUse" x1="484.316" x2="472.961" xlink:href="#lg4" y1="168.364" y2="245.098"/><linearGradient id="paint34_linear_136_3673" gradientUnits="userSpaceOnUse" x1="488.211" x2="476.856" xlink:href="#lg4" y1="168.94" y2="245.684"/><linearGradient id="paint35_linear_136_3673" gradientUnits="userSpaceOnUse" x1="492.129" x2="480.774" xlink:href="#lg4" y1="169.505" y2="246.249"/><linearGradient id="paint36_linear_136_3673" gradientUnits="userSpaceOnUse" x1="496.015" x2="484.66" xlink:href="#lg4" y1="170.091" y2="246.836"/><linearGradient id="paint37_linear_136_3673" gradientUnits="userSpaceOnUse" x1="499.91" x2="488.555" xlink:href="#lg4" y1="170.677" y2="247.421"/><linearGradient id="paint38_linear_136_3673" gradientUnits="userSpaceOnUse" x1="503.817" x2="492.462" xlink:href="#lg4" y1="171.242" y2="247.977"/><linearGradient id="paint39_linear_136_3673" gradientUnits="userSpaceOnUse" x1="507.713" x2="496.358" xlink:href="#lg4" y1="171.828" y2="248.562"/><linearGradient id="paint40_linear_136_3673" gradientUnits="userSpaceOnUse" x1="511.611" x2="500.256" xlink:href="#lg4" y1="172.404" y2="249.138"/><linearGradient id="paint41_linear_136_3673" gradientUnits="userSpaceOnUse" x1="515.518" x2="504.163" xlink:href="#lg4" y1="172.979" y2="249.713"/><linearGradient id="paint42_linear_136_3673" gradientUnits="userSpaceOnUse" x1="519.404" x2="508.048" xlink:href="#lg4" y1="173.555" y2="250.29"/><linearGradient id="paint43_linear_136_3673" gradientUnits="userSpaceOnUse" x1="523.3" x2="511.944" xlink:href="#lg4" y1="174.14" y2="250.875"/><linearGradient id="paint44_linear_136_3673" gradientUnits="userSpaceOnUse" x1="527.195" x2="515.84" xlink:href="#lg4" y1="174.706" y2="251.451"/><linearGradient id="paint45_linear_136_3673" gradientUnits="userSpaceOnUse" x1="531.102" x2="519.747" xlink:href="#lg4" y1="175.282" y2="252.027"/><linearGradient id="paint46_linear_136_3673" gradientUnits="userSpaceOnUse" x1="534.998" x2="523.643" xlink:href="#lg4" y1="175.857" y2="252.602"/><linearGradient id="paint47_linear_136_3673" gradientUnits="userSpaceOnUse" x1="538.897" x2="527.542" xlink:href="#lg4" y1="176.433" y2="253.178"/><linearGradient id="paint48_linear_136_3673" gradientUnits="userSpaceOnUse" x1="682.131" x2="682.211" xlink:href="#lg2" y1="119.89" y2="104.87"/><linearGradient id="paint49_linear_136_3673" gradientUnits="userSpaceOnUse" x1="675.801" x2="687.801" xlink:href="#lg3" y1="115.649" y2="107.229"/><linearGradient id="paint50_linear_136_3673" gradientUnits="userSpaceOnUse" x1="665.981" x2="678.321" xlink:href="#lg3" y1="113.339" y2="114.619"/><linearGradient id="paint51_linear_136_3673" gradientUnits="userSpaceOnUse" x1="745.511" x2="745.361" xlink:href="#lg2" y1="160.67" y2="140.63"/><linearGradient id="paint52_linear_136_3673" gradientUnits="userSpaceOnUse" x1="733.171" x2="756.141" xlink:href="#lg3" y1="153.63" y2="137.51"/><linearGradient id="paint53_linear_136_3673" gradientUnits="userSpaceOnUse" x1="714.381" x2="738.001" xlink:href="#lg3" y1="149.21" y2="151.65"/><radialGradient id="paint54_radial_136_3673" cx="543.609" cy="273.4" gradientUnits="userSpaceOnUse" r="113.65" xlink:href="#lg3"/><linearGradient id="paint55_linear_136_3673" gradientUnits="userSpaceOnUse" x1="430.219" x2="507.459" y1="89.1198" y2="185.58"><stop offset="0" stop-color="#305eb2"/><stop offset="1" stop-color="#4687ff" stop-opacity="0"/></linearGradient><radialGradient id="paint56_radial_136_3673" cx="711.389" cy="146.46" gradientUnits="userSpaceOnUse" r="211.85"><stop offset="0" stop-color="#bdd4ff"/><stop offset="1" stop-color="#edf3ff" stop-opacity="0"/></radialGradient><linearGradient id="paint57_linear_136_3673" gradientUnits="userSpaceOnUse" x1="463.918" x2="486.998" xlink:href="#lg4" y1="252.469" y2="198.319"/><linearGradient id="paint58_linear_136_3673" gradientUnits="userSpaceOnUse" x1="422.04" x2="456.66" xlink:href="#lg4" y1="179.53" y2="160.88"/><radialGradient id="paint59_radial_136_3673" cx="364.291" cy="285.28" gradientUnits="userSpaceOnUse" r="225.9"><stop offset="0" stop-color="#305eb2" stop-opacity=".3"/><stop offset=".28" stop-color="#3e69b7" stop-opacity=".28"/><stop offset=".55" stop-color="#6a8bc7" stop-opacity=".22"/><stop offset=".81" stop-color="#b3c4e2" stop-opacity=".11"/><stop offset="1" stop-color="#ffffff" stop-opacity="0"/></radialGradient><radialGradient id="paint60_radial_136_3673" cx="156.128" cy="421.159" gradientUnits="userSpaceOnUse" r="258.23"><stop offset="0" stop-color="#ff7e23" stop-opacity="0"/><stop offset=".97" stop-color="#ff7e23"/></radialGradient><radialGradient id="paint61_radial_136_3673" cx="414.89" cy="296.82" gradientUnits="userSpaceOnUse" r="434.6"><stop offset="0" stop-color="#ff7e23"/><stop offset="1" stop-color="#ff7e23" stop-opacity="0"/></radialGradient><linearGradient id="paint62_linear_136_3673" gradientUnits="userSpaceOnUse" x1="297.838" x2="302.718" xlink:href="#lg3" y1="403.89" y2="340.86"/><linearGradient id="lg5"><stop offset="0" stop-color="#305eb2"/><stop offset="1" stop-color="#4687ff"/></linearGradient><linearGradient id="paint63_linear_136_3673" gradientUnits="userSpaceOnUse" x1="311.368" x2="295.098" xlink:href="#lg5" y1="432.989" y2="373.809"/><linearGradient id="paint64_linear_136_3673" gradientUnits="userSpaceOnUse" x1="317.168" x2="240.228" xlink:href="#lg5" y1="404.479" y2="395.599"/><linearGradient id="paint65_linear_136_3673" gradientUnits="userSpaceOnUse" x1="106.689" x2="104.919" xlink:href="#lg3" y1="344.589" y2="262.479"/><linearGradient id="paint66_linear_136_3673" gradientUnits="userSpaceOnUse" x1="130.309" x2="103.679" xlink:href="#lg5" y1="386.41" y2="315.69"/><linearGradient id="paint67_linear_136_3673" gradientUnits="userSpaceOnUse" x1="109.909" x2="59.3089" xlink:href="#lg5" y1="356.36" y2="328.55"/><linearGradient id="paint68_linear_136_3673" gradientUnits="userSpaceOnUse" x1="290.728" x2="296.948" xlink:href="#lg3" y1="325.72" y2="272.9"/><linearGradient id="paint69_linear_136_3673" gradientUnits="userSpaceOnUse" x1="304.658" x2="272.548" xlink:href="#lg5" y1="312.3" y2="294.1"/><linearGradient id="paint70_linear_136_3673" gradientUnits="userSpaceOnUse" x1="303.768" x2="308.798" xlink:href="#lg5" y1="335.15" y2="305.7"/><linearGradient id="paint71_linear_136_3673" gradientUnits="userSpaceOnUse" x1="449.541" x2="449.541" xlink:href="#lg3" y1="280.18" y2="263.31"/><linearGradient id="paint72_linear_136_3673" gradientUnits="userSpaceOnUse" x1="448.151" x2="449.631" xlink:href="#lg5" y1="299.87" y2="275.6"/><linearGradient id="paint73_linear_136_3673" gradientUnits="userSpaceOnUse" x1="446.671" x2="435.721" xlink:href="#lg5" y1="298.71" y2="274"/><linearGradient id="paint74_linear_136_3673" gradientUnits="userSpaceOnUse" x1="373.629" x2="355.829" xlink:href="#lg5" y1="281.059" y2="274.459"/><linearGradient id="paint75_linear_136_3673" gradientUnits="userSpaceOnUse" x1="376.578" x2="379.378" xlink:href="#lg5" y1="301.279" y2="273.269"/><linearGradient id="paint76_linear_136_3673" gradientUnits="userSpaceOnUse" x1="371.399" x2="369.139" xlink:href="#lg3" y1="283.199" y2="262.149"/><linearGradient id="lg6"><stop offset="0" stop-color="#ffe2d9"/><stop offset="1" stop-color="#ff7e23"/></linearGradient><linearGradient id="paint77_linear_136_3673" gradientUnits="userSpaceOnUse" x1="493.178" x2="475.528" xlink:href="#lg6" y1="210.429" y2="227.739"/><linearGradient id="paint78_linear_136_3673" gradientUnits="userSpaceOnUse" x1="482.019" x2="474.359" xlink:href="#lg6" y1="210.449" y2="219.329"/><linearGradient id="paint79_linear_136_3673" gradientUnits="userSpaceOnUse" x1="491.591" x2="476.161" xlink:href="#lg6" y1="185.979" y2="206.949"/><linearGradient id="paint80_linear_136_3673" gradientUnits="userSpaceOnUse" x1="500.36" x2="483.72" xlink:href="#lg6" y1="161.419" y2="186.829"/><linearGradient id="paint81_linear_136_3673" gradientUnits="userSpaceOnUse" x1="470.26" x2="470.26" xlink:href="#lg6" y1="238.629" y2="261.709"/><linearGradient id="paint82_linear_136_3673" gradientUnits="userSpaceOnUse" x1="469.249" x2="469.249" xlink:href="#lg6" y1="236.999" y2="263.489"/><linearGradient id="paint83_linear_136_3673" gradientUnits="userSpaceOnUse" x1="469.35" x2="469.35" xlink:href="#lg6" y1="248.84" y2="279.47"/><linearGradient id="paint84_linear_136_3673" gradientUnits="userSpaceOnUse" x1="469.019" x2="469.019" xlink:href="#lg6" y1="247.799" y2="260.379"/><clipPath id="clip0_136_3673"><path d="M0 0H945V495H0Z"/></clipPath><g clip-path="url(#clip0_136_3673)"><path d="M945.86 0H0V495H945.86V0Z" fill="url(#paint0_linear_136_3673)"/><path d="M604.527 320.852C730.886 250.925 816.814 164.412 796.453 127.619 776.092 90.8263 657.152 117.687 530.793 187.613 404.434 257.54 318.506 344.053 338.867 380.846 359.228 417.639 478.168 390.778 604.527 320.852Z" fill="url(#paint1_radial_136_3673)" fill-opacity=".8" opacity=".51"/><path d="M502.215 359.055C585.141 312.106 627.952 238.218 597.835 194.023 567.717 149.827 476.078 152.059 393.151 199.009 310.225 245.958 267.415 319.845 297.532 364.041 327.649 408.236 419.289 406.004 502.215 359.055Z" fill="url(#paint2_radial_136_3673)" fill-opacity=".7" opacity=".51"/><path d="M507.503 220.029C643.169 143.222 744.001 67.5342 732.719 50.977 721.436 34.4199 602.31 83.2627 466.645 160.071 330.979 236.878 230.147 312.566 241.429 329.123 252.712 345.68 371.838 296.837 507.503 220.029Z" fill="url(#paint3_radial_136_3673)" opacity=".51"/><path d="M434.714 370.795C476.081 331.189 483.692 276.902 451.712 249.541 419.732 222.181 360.271 232.107 318.903 271.712 277.535 311.317 269.925 365.604 301.905 392.965 333.885 420.326 393.346 410.4 434.714 370.795Z" fill="url(#paint4_radial_136_3673)" fill-opacity=".8" opacity=".51"/><path d="M573.47 150.169C574.35 149.649 575.78 149.629 576.67 150.129 577.56 150.629 577.57 151.459 576.69 151.979 575.81 152.499 574.38 152.519 573.49 152.019 572.6 151.519 572.59 150.689 573.47 150.169Z" fill="#8dc63f"/><path d="M317.562 286.98C317.232 286.75 316.922 286.51 316.622 286.26 316.552 286.2 316.482 286.14 316.412 286.08 316.102 285.82 315.802 285.55 315.522 285.28 315.492 285.25 315.462 285.22 315.432 285.18 315.172 284.92 314.932 284.66 314.712 284.39 314.662 284.34 314.612 284.28 314.572 284.23 314.472 284.11 314.392 284 314.302 283.88 314.232 283.79 314.162 283.7 314.102 283.62 314.012 283.5 313.932 283.37 313.852 283.25 313.802 283.17 313.742 283.08 313.682 283 313.592 282.86 313.522 282.72 313.442 282.58 313.402 282.51 313.362 282.44 313.322 282.37 313.222 282.18 313.132 281.99 313.052 281.8 313.042 281.78 313.032 281.75 313.022 281.73 312.922 281.49 312.832 281.25 312.752 281.01 312.732 280.94 312.712 280.86 312.682 280.79 312.632 280.62 312.582 280.45 312.542 280.28 312.522 280.2 312.502 280.11 312.492 280.03 312.462 279.86 312.432 279.69 312.412 279.52 312.412 279.44 312.392 279.37 312.382 279.29 312.362 279.05 312.342 278.81 312.342 278.57 312.342 278.57 311.702 285.71 312.622 288.72 313.772 292.47 315.552 296.15 320.112 298.8 343.952 312.61 414.652 353.39 414.652 353.39 415.152 353.68 415.682 353.95 416.212 354.21 416.342 354.27 416.472 354.34 416.602 354.4 416.732 354.46 416.852 354.52 416.982 354.58 417.232 354.69 417.482 354.78 417.742 354.88 417.992 354.98 418.232 355.09 418.492 355.18 418.882 355.32 419.272 355.45 419.672 355.58 419.912 355.66 420.142 355.74 420.392 355.81 420.442 355.83 420.492 355.84 420.542 355.86 421.102 356.03 421.672 356.18 422.252 356.31 422.362 356.34 422.472 356.35 422.582 356.38 423.112 356.5 423.652 356.61 424.192 356.71 424.412 356.75 424.632 356.78 424.852 356.82 425.302 356.89 425.752 356.96 426.202 357.01 426.432 357.04 426.672 357.07 426.902 357.09 427.382 357.14 427.862 357.18 428.342 357.21 428.542 357.22 428.732 357.24 428.932 357.25 429.602 357.29 430.282 357.31 430.952 357.31 431.042 357.31 431.122 357.31 431.212 357.31 431.802 357.31 432.392 357.29 432.982 357.26 433.202 357.25 433.422 357.23 433.642 357.22 434.102 357.19 434.562 357.15 435.022 357.11 435.252 357.09 435.492 357.06 435.722 357.03 436.192 356.97 436.652 356.91 437.122 356.84 437.322 356.81 437.522 356.78 437.722 356.75 438.372 356.64 439.022 356.51 439.652 356.36 439.702 356.35 439.742 356.34 439.792 356.32 440.382 356.18 440.962 356.03 441.522 355.86 441.722 355.8 441.912 355.74 442.102 355.68 442.522 355.55 442.942 355.41 443.342 355.26 443.552 355.18 443.752 355.11 443.962 355.03 444.362 354.87 444.762 354.7 445.152 354.53 445.332 354.45 445.512 354.37 445.682 354.29 446.232 354.03 446.772 353.75 447.282 353.46 447.282 353.46 608.732 260.25 663.192 228.81 669.132 225.38 671.182 222.83 671.842 218.28 672.212 215.74 671.782 208 671.782 208 671.802 211.41 669.572 214.81 665.082 217.4L447.222 343.17C446.712 343.47 446.172 343.74 445.622 344 445.452 344.08 445.272 344.16 445.092 344.24 444.702 344.42 444.312 344.58 443.902 344.74 443.702 344.82 443.492 344.9 443.282 344.97 442.872 345.12 442.462 345.26 442.042 345.39 441.852 345.45 441.652 345.52 441.462 345.57 440.892 345.74 440.312 345.89 439.732 346.03 439.682 346.04 439.642 346.05 439.592 346.07 438.962 346.22 438.312 346.34 437.662 346.46 437.462 346.49 437.262 346.52 437.062 346.55 436.602 346.62 436.132 346.69 435.662 346.74 435.432 346.77 435.192 346.79 434.962 346.82 434.502 346.87 434.042 346.9 433.582 346.93 433.362 346.94 433.142 346.96 432.922 346.97 432.332 347 431.742 347.01 431.152 347.02 431.062 347.02 430.982 347.02 430.892 347.02 430.212 347.02 429.542 347 428.872 346.96 428.672 346.95 428.482 346.93 428.282 346.92 427.802 346.89 427.322 346.85 426.842 346.8 426.612 346.78 426.372 346.75 426.142 346.72 425.692 346.66 425.232 346.6 424.782 346.53 424.562 346.5 424.342 346.46 424.132 346.42 423.592 346.32 423.052 346.21 422.512 346.09 422.402 346.07 422.292 346.05 422.192 346.02 421.562 345.87 420.942 345.7 420.332 345.52 420.092 345.45 419.852 345.36 419.622 345.29 419.222 345.16 418.832 345.03 418.442 344.89 418.192 344.8 417.942 344.69 417.692 344.59 417.312 344.43 416.922 344.28 416.552 344.11 416.422 344.05 416.292 343.99 416.162 343.92 415.622 343.66 415.102 343.39 414.602 343.1L319.142 287.99C318.962 287.89 318.792 287.78 318.612 287.67 318.262 287.45 317.922 287.24 317.602 287.01 317.592 287.01 317.572 286.99 317.562 286.98V286.98Z" fill="url(#paint5_linear_136_3673)"/><path d="M319.132 287.99C310.102 282.77 310.052 274.34 319.032 269.16L536.892 143.39C545.872 138.21 560.482 138.23 569.512 143.45L664.972 198.56C674.002 203.78 674.052 212.21 665.072 217.39L447.212 343.16C438.232 348.34 423.622 348.32 414.592 343.1L319.132 287.99V287.99Z" fill="url(#paint6_linear_136_3673)"/><path d="M670.432 203.52C671.702 206.93 669.752 211.5 664.762 214.38L445.842 340.77C437.632 345.51 424.242 345.48 415.972 340.71 415.262 340.3 344.342 299.32 319.262 284.79 316.992 283.47 315.442 281.89 314.532 280.32 313.752 278.98 313.242 278.03 313.082 276.63 313.022 276.1 313.032 275.61 313.162 274.97 312.512 276.32 312.242 277.72 312.352 279.11 313.212 281.47 314.952 284.12 318.472 286.15 343.552 300.68 414.472 341.66 415.182 342.08 423.882 347.1 437.982 347.13 446.622 342.14L665.542 215.75C668.872 213.83 670.882 211.21 671.752 208.56 671.872 206.86 671.432 205.15 670.422 203.52H670.432Z" fill="#ffffff" opacity=".71"/><path d="M616.472 182.15C615.382 182.78 613.742 182.85 612.802 182.3L589.412 168.79C588.472 168.25 588.592 167.3 589.672 166.67 590.762 166.04 592.402 165.97 593.342 166.52L616.732 180.03C617.672 180.57 617.552 181.52 616.472 182.15Z" fill="#5587e3" opacity=".5"/><path d="M616.432 180.45 593.042 166.94C592.102 166.4 590.452 166.46 589.372 167.09 589.152 167.21 588.992 167.35 588.852 167.5 588.982 167.2 589.252 166.92 589.672 166.67 590.762 166.04 592.402 165.97 593.342 166.52L616.732 180.03C617.482 180.47 617.552 181.16 616.992 181.74 617.192 181.27 617.022 180.78 616.442 180.45H616.432Z" fill="#4774d4" opacity=".39"/><path d="M539.5 212.689 578.79 190.069 617.98 212.689 578.74 235.339 539.5 212.689Z" fill="#416ba9"/><path d="M578.79 190.069 539.5 212.689 578.74 235.339 617.98 212.689 578.79 190.069Z" fill="url(#paint7_linear_136_3673)"/><path d="M539.5 212.689V218.359L578.76 241.029 617.98 218.359V212.689L578.74 235.339 539.5 212.689Z" fill="url(#paint8_linear_136_3673)"/><path d="M539.5 212.689V218.359L578.76 241.029 578.74 235.339 539.5 212.689Z" fill="url(#paint9_linear_136_3673)"/><g fill="#ffffff"><path d="M588.77 223.479 559.57 206.609 560.77 205.919 589.97 222.779 588.77 223.479Z"/><path d="M584.459 223.829 558.949 209.099 560.159 208.409 585.669 223.129 584.459 223.829Z"/><path d="M577.959 222.909 560.539 212.859 561.749 212.159 579.159 222.219 577.959 222.909Z"/><path d="M595.019 213.06 577.609 203 578.809 202.31 596.229 212.36 595.019 213.06Z"/><path d="M597.312 217.219 570.402 201.679 571.602 200.989 598.522 216.529 597.312 217.219Z"/><path d="M595.083 218.769 567.723 202.969 568.923 202.279 596.283 218.069 595.083 218.769Z"/><path d="M593.54 220.719 564.34 203.859 565.54 203.159 594.75 220.029 593.54 220.719Z"/><path d="M588.661 220.74 564.301 206.679 565.501 205.979 589.871 220.049 588.661 220.74Z"/></g><path d="M415.16 216.319 534.12 284.999V232.769L450.22 195.369 415.16 216.319Z" fill="url(#paint10_linear_136_3673)"/><path d="M544.212 288.06C585.467 288.06 618.912 254.616 618.912 213.36 618.912 172.104 585.467 138.66 544.212 138.66 502.956 138.66 469.512 172.104 469.512 213.36 469.512 254.616 502.956 288.06 544.212 288.06Z" fill="url(#paint11_radial_136_3673)"/><path d="M422.33 160.94 426.42 222.26 457.14 204.57V166.33C457.14 164.86 457.83 163.53 458.87 162.56 450.84 158.59 431.39 149.02 423.53 145.39L422.32 160.94H422.33Z" fill="url(#paint12_linear_136_3673)"/><path d="M649.301 160.179 662.371 152.649 675.411 160.179 662.361 167.709 649.301 160.179Z" fill="#416ba9"/><path d="M662.371 152.649 649.301 160.179 662.361 167.709 675.411 160.179 662.371 152.649Z" fill="url(#paint13_linear_136_3673)"/><path d="M649.301 160.18V162.06L662.361 169.6 675.411 162.06V160.18L662.361 167.71 649.301 160.18Z" fill="url(#paint14_linear_136_3673)"/><path d="M649.301 160.18V162.06L662.361 169.6V167.71L649.301 160.18Z" fill="url(#paint15_linear_136_3673)"/><path d="M668.714 161.82 659.004 156.21 659.404 155.979 669.114 161.589 668.714 161.82Z" fill="#ffffff"/><path d="M667.283 161.94 658.793 157.04 659.193 156.81 667.683 161.7 667.283 161.94Z" fill="#ffffff"/><path d="M665.114 161.63 659.324 158.29 659.724 158.06 665.514 161.4 665.114 161.63Z" fill="#ffffff"/><path d="M665.882 163.019 656.922 157.849 657.322 157.619 666.282 162.779 665.882 163.019Z" fill="#ffffff"/><path d="M665.131 163.53 656.031 158.28 656.431 158.05 665.531 163.3 665.131 163.53Z" fill="#ffffff"/><path d="M664.624 164.18 654.914 158.57 655.314 158.34 665.024 163.95 664.624 164.18Z" fill="#ffffff"/><path d="M663.002 164.189 654.902 159.509 655.302 159.279 663.402 163.959 663.002 164.189Z" fill="#ffffff"/><path d="M725.52 69.4695 738.59 61.9395 751.62 69.4695 738.58 76.9995 725.52 69.4695Z" fill="#416ba9"/><path d="M738.59 61.9395 725.52 69.4695 738.58 76.9995 751.62 69.4695 738.59 61.9395Z" fill="url(#paint16_linear_136_3673)"/><path d="M725.52 69.4697V71.3497L738.58 78.8897 751.62 71.3497V69.4697L738.58 76.9997 725.52 69.4697Z" fill="url(#paint17_linear_136_3673)"/><path d="M725.52 69.4697V71.3497L738.58 78.8897V76.9997L725.52 69.4697Z" fill="url(#paint18_linear_136_3673)"/><path d="M744.929 71.1095 735.219 65.4995 735.619 65.2695 745.329 70.8795 744.929 71.1095Z" fill="#ffffff"/><path d="M743.498 71.2296 735.008 66.3296 735.408 66.0996 743.898 70.9896 743.498 71.2296Z" fill="#ffffff"/><path d="M741.329 70.9198 735.539 67.5798 735.939 67.3398 741.729 70.6898 741.329 70.9198Z" fill="#ffffff"/><path d="M742.101 72.2994 733.141 67.1394 733.541 66.8994 742.501 72.0694 742.101 72.2994Z" fill="#ffffff"/><path d="M741.35 72.8191 732.25 67.5691 732.65 67.3291 741.75 72.5891 741.35 72.8191Z" fill="#ffffff"/><path d="M740.839 73.4699 731.129 67.8599 731.529 67.6299 741.239 73.2399 740.839 73.4699Z" fill="#ffffff"/><path d="M739.219 73.4793 731.109 68.7993 731.509 68.5693 739.619 73.2393 739.219 73.4793Z" fill="#ffffff"/><path d="M559.16 148.099 579.19 136.569 599.17 148.099 579.17 159.649 559.16 148.099Z" fill="#416ba9"/><path d="M579.19 136.569 559.16 148.099 579.17 159.649 599.17 148.099 579.19 136.569Z" fill="url(#paint19_linear_136_3673)"/><path d="M559.16 148.1V150.99L579.18 162.55 599.17 150.99V148.1L579.17 159.65 559.16 148.1Z" fill="url(#paint20_linear_136_3673)"/><path d="M559.16 148.1V150.99L579.18 162.55 579.17 159.65 559.16 148.1Z" fill="url(#paint21_linear_136_3673)"/><path d="M438.736 140.433 438.176 140.45 440.551 216.033 441.111 216.015 438.736 140.433Z" fill="url(#paint22_linear_136_3673)"/><path d="M442.157 136.374 441.598 136.392 444.169 218.211 444.729 218.194 442.157 136.374Z" fill="url(#paint23_linear_136_3673)"/><path d="M445.814 138.558 445.254 138.575 447.825 220.395 448.385 220.377 445.814 138.558Z" fill="url(#paint24_linear_136_3673)"/><path d="M449.482 140.752 448.922 140.77 451.493 222.589 452.053 222.572 449.482 140.752Z" fill="url(#paint25_linear_136_3673)"/><path d="M453.138 142.946 452.578 142.964 455.149 224.783 455.709 224.766 453.138 142.946Z" fill="url(#paint26_linear_136_3673)"/><path d="M456.794 145.14 456.234 145.157 458.806 226.987 459.366 226.969 456.794 145.14Z" fill="url(#paint27_linear_136_3673)"/><path d="M460.462 147.324 459.902 147.342 462.474 229.171 463.034 229.154 460.462 147.324Z" fill="url(#paint28_linear_136_3673)"/><path d="M464.118 149.527 463.559 149.545 466.13 231.375 466.69 231.357 464.118 149.527Z" fill="url(#paint29_linear_136_3673)"/><path d="M467.775 151.722 467.215 151.739 469.786 233.569 470.346 233.551 467.775 151.722Z" fill="url(#paint30_linear_136_3673)"/><path d="M471.423 153.916 470.863 153.934 473.435 235.763 473.995 235.746 471.423 153.916Z" fill="url(#paint31_linear_136_3673)"/><path d="M475.091 156.11 474.531 156.128 477.103 237.958 477.663 237.94 475.091 156.11Z" fill="url(#paint32_linear_136_3673)"/><path d="M478.747 158.294 478.188 158.312 480.759 240.131 481.319 240.114 478.747 158.294Z" fill="url(#paint33_linear_136_3673)"/><path d="M482.403 160.498 481.844 160.516 484.415 242.335 484.975 242.318 482.403 160.498Z" fill="url(#paint34_linear_136_3673)"/><path d="M486.071 162.682 485.512 162.699 488.083 244.519 488.643 244.501 486.071 162.682Z" fill="url(#paint35_linear_136_3673)"/><path d="M489.728 164.876 489.168 164.894 491.739 246.713 492.299 246.696 489.728 164.876Z" fill="url(#paint36_linear_136_3673)"/><path d="M493.384 167.08 492.824 167.098 495.396 248.917 495.955 248.9 493.384 167.08Z" fill="url(#paint37_linear_136_3673)"/><path d="M497.052 169.264 496.492 169.281 499.063 251.101 499.623 251.083 497.052 169.264Z" fill="url(#paint38_linear_136_3673)"/><path d="M500.708 171.468 500.148 171.485 502.72 253.305 503.279 253.287 500.708 171.468Z" fill="url(#paint39_linear_136_3673)"/><path d="M504.357 173.652 503.797 173.67 506.368 255.49 506.928 255.472 504.357 173.652Z" fill="url(#paint40_linear_136_3673)"/><path d="M508.025 175.846 507.465 175.863 510.036 257.683 510.596 257.665 508.025 175.846Z" fill="url(#paint41_linear_136_3673)"/><path d="M511.681 178.04 511.121 178.058 513.692 259.877 514.252 259.86 511.681 178.04Z" fill="url(#paint42_linear_136_3673)"/><path d="M515.337 180.233 514.777 180.251 517.349 262.071 517.908 262.053 515.337 180.233Z" fill="url(#paint43_linear_136_3673)"/><path d="M518.993 182.428 518.434 182.445 521.005 264.275 521.565 264.257 518.993 182.428Z" fill="url(#paint44_linear_136_3673)"/><path d="M522.661 184.622 522.102 184.64 524.673 266.469 525.233 266.452 522.661 184.622Z" fill="url(#paint45_linear_136_3673)"/><path d="M526.318 186.815 525.758 186.833 528.329 268.663 528.889 268.645 526.318 186.815Z" fill="url(#paint46_linear_136_3673)"/><path d="M529.978 189.01 529.418 189.027 531.99 270.857 532.549 270.839 529.978 189.01Z" fill="url(#paint47_linear_136_3673)"/><path d="M670.891 110.36 682.191 103.85 693.461 110.36 682.181 116.87 670.891 110.36Z" fill="#416ba9"/><path d="M682.191 103.85 670.891 110.36 682.181 116.87 693.461 110.36 682.191 103.85Z" fill="url(#paint48_linear_136_3673)"/><path d="M670.891 110.359V111.989L682.191 118.509 693.461 111.989V110.359L682.181 116.869 670.891 110.359Z" fill="url(#paint49_linear_136_3673)"/><path d="M670.891 110.359V111.989L682.191 118.509 682.181 116.869 670.891 110.359Z" fill="url(#paint50_linear_136_3673)"/><path d="M680.741 112.45 681.001 110.49 678.091 110.77 677.801 109.45 680.531 109.23 679.271 107.86 680.901 107.46 682.191 108.74 683.721 107.77 685.211 108.55 683.751 109.6 686.211 110.36 685.741 111.54 683.121 110.73 683.021 112.64 680.751 112.44 680.741 112.45Z" fill="#ffffff"/><path d="M723.781 143.5 745.411 131.05 766.981 143.5 745.381 155.97 723.781 143.5Z" fill="#416ba9"/><path d="M745.411 131.05 723.781 143.5 745.381 155.97 766.981 143.5 745.411 131.05Z" fill="url(#paint51_linear_136_3673)"/><path d="M723.781 143.5V146.62L745.401 159.1 766.981 146.62V143.5L745.381 155.97 723.781 143.5Z" fill="url(#paint52_linear_136_3673)"/><path d="M723.781 143.5V146.62L745.401 159.1 745.381 155.97 723.781 143.5Z" fill="url(#paint53_linear_136_3673)"/><path d="M742.622 147.5 743.122 143.76 737.552 144.3 736.992 141.78 742.212 141.35 739.802 138.73 742.932 137.96 745.392 140.4 748.322 138.55 751.162 140.05 748.372 142.06 753.072 143.51 752.182 145.77 747.172 144.23 746.972 147.89 742.622 147.51V147.5Z" fill="#ffffff"/><path d="M539.259 166.08 475.269 129.14C467.299 124.54 460.069 123.99 454.739 126.81 449.099 129.79 437.589 137 423.629 144.28L423.539 145.39C431.389 149.02 450.849 158.6 458.879 162.56 460.549 161.01 463.129 160.39 465.229 161.65L514.139 189.69C524.129 195.46 529.499 205.88 534.339 217.4L538.509 287.54 568.939 270.46V217.49C568.939 198.56 555.649 175.55 539.259 166.08V166.08Z" fill="url(#paint54_radial_136_3673)"/><path d="M539.259 166.08 475.269 129.14C467.299 124.54 460.069 123.99 454.739 126.81 449.099 129.79 437.589 137 423.629 144.28L423.539 145.39C431.389 149.02 450.849 158.6 458.879 162.56 460.549 161.01 463.129 160.39 465.229 161.65L514.139 189.69C524.129 195.46 529.499 205.88 534.339 217.4L538.509 287.54 568.939 270.46V217.49C568.939 198.56 555.649 175.55 539.259 166.08V166.08Z" fill="url(#paint55_linear_136_3673)"/><path d="M539.259 166.08 475.269 129.14C467.299 124.54 460.069 123.99 454.739 126.81 449.099 129.79 437.589 137 423.629 144.28L423.539 145.39C431.389 149.02 450.849 158.6 458.879 162.56 460.549 161.01 463.129 160.39 465.229 161.65L514.139 189.69C524.129 195.46 529.499 205.88 534.339 217.4L538.509 287.54 568.939 270.46V217.49C568.939 198.56 555.649 175.55 539.259 166.08V166.08Z" fill="url(#paint56_radial_136_3673)"/><path d="M508.818 183.159 444.828 146.219C428.438 136.759 415.148 144.429 415.148 163.359V216.329L425.878 222.569 426.718 222.049V170.039C426.718 158.499 434.848 153.809 444.838 159.579L508.828 196.519C518.818 202.289 526.948 216.359 526.948 227.899V280.869L538.508 287.549V234.579C538.508 215.649 525.218 192.639 508.828 183.169L508.818 183.159Z" fill="url(#paint57_linear_136_3673)"/><path d="M416.34 163.65C416.34 152.71 420.72 145.48 427.57 143.07 429.03 142.56 429.58 142.3 429.58 142.3 429.58 142.3 429.49 142.31 429.44 142.32 420.88 143.39 415.16 150.96 415.16 163.37V216.34L416.34 217.03V163.67 163.65Z" fill="url(#paint58_linear_136_3673)" opacity=".58"/><path d="M-141.849 380.66C-108.139 296.7 16.2007 266.48 100.501 282.12 178.921 296.68 229.921 352.28 281.591 325.4 305.561 312.93 308.751 293.6 341.511 284.12 371.801 275.35 381.891 288.17 423.181 277.91 465.281 267.44 466.191 245.94 467.781 240.79 469.501 235.22 468.731 232.62 469.331 233.84 471.421 238.09 473.291 283.1 435.171 306.46 405.711 324.52 384.321 303.67 357.941 320.66 325.371 341.64 346.471 380.82 318.211 419.27 277.841 474.2 201.781 439.14 159.751 495.17 132.541 531.45 155.581 557.93 129.121 587.05 90.3007 629.78-7.38926 625.7-71.2793 579.73-133.379 535.05-168.559 447.19-141.849 380.66V380.66Z" fill="url(#paint59_radial_136_3673)"/><path d="M-148.232 372.529C-114.522 288.569 9.81792 258.349 94.1179 273.989 172.538 288.549 223.538 344.149 275.208 317.269 299.178 304.799 302.368 285.469 335.128 275.989 365.418 267.219 375.508 280.039 416.798 269.779 458.898 259.309 465.828 239.739 468.158 234.879 472.768 225.249 466.908 274.969 428.788 298.339 399.328 316.399 377.938 295.549 351.558 312.539 318.988 333.519 340.088 372.699 311.828 411.149 271.458 466.079 195.398 431.019 153.368 487.049 126.158 523.329 149.198 549.809 122.738 578.929 83.9179 621.659-13.7721 617.579-77.6621 571.609-139.762 526.929-174.942 439.069-148.232 372.539V372.529Z" fill="url(#paint60_radial_136_3673)"/><path d="M-178.85 477.73C-178.85 477.73-80.7401 313.23 25.7899 305.56 126.27 298.33 177.59 378.19 256.58 352.42 306.51 336.13 292.1 283.5 368.59 286.02 420.33 287.72 441.87 273.71 441.87 273.71 441.87 273.71 412.06 298.8 375.94 298.54 278.5 297.85 352.51 392.23 278.77 416.7 189.48 446.32 100.12 399.83 84.1399 519.68 68.1599 639.52-268.79 649.41-178.85 477.74V477.73Z" fill="url(#paint61_radial_136_3673)"/><path d="M259.988 385.98 299.268 363.35 338.458 385.98 299.228 408.62 259.988 385.98Z" fill="#416ba9"/><path d="M299.268 363.35 259.988 385.98 299.228 408.62 338.458 385.98 299.268 363.35Z" fill="url(#paint62_linear_136_3673)"/><path d="M259.988 385.979V391.639L299.248 414.309 338.458 391.639V385.979L299.228 408.619 259.988 385.979Z" fill="url(#paint63_linear_136_3673)"/><path d="M297.637 376.47 314.107 385.98C315.157 386.59 315.157 388.1 314.107 388.71L302.547 395.39C302.057 395.67 301.457 395.67 300.967 395.39L292.157 390.31 284.487 385.89C283.437 385.28 283.437 383.77 284.487 383.16L296.067 376.48C296.557 376.2 297.157 376.2 297.647 376.48L297.637 376.47Z" fill="#ffffff"/><path d="M291.949 395.84 296.849 393.01 292.159 390.31 291.949 395.84Z" fill="#ffffff"/><path d="M259.988 385.979V391.639L299.248 414.309 299.228 408.619 259.988 385.979Z" fill="url(#paint64_linear_136_3673)"/><path d="M49.1289 318.049 106.189 285.189 163.109 318.049 106.129 350.949 49.1289 318.049Z" fill="#cf3a52"/><path d="M106.189 285.189 49.1289 318.049 106.129 350.949 163.109 318.049 106.189 285.189Z" fill="url(#paint65_linear_136_3673)"/><path d="M49.1289 318.05V326.28L106.159 359.2 163.109 326.28V318.05L106.129 350.95 49.1289 318.05Z" fill="url(#paint66_linear_136_3673)"/><path d="M121.99 309.769 117.8 318.309 127.73 326.269 112.22 325.319 103.95 332.429 98.55 323.299 83.5 319.749 95.68 315.049 94.65 305.739 107.57 311.969 121.99 309.769Z" fill="#ffffff"/><path d="M49.1289 318.05V326.28L106.159 359.2 106.129 350.95 49.1289 318.05Z" fill="url(#paint67_linear_136_3673)"/><path d="M265.168 303.69 293.358 287.46 321.478 303.69 293.328 319.94 265.168 303.69Z" fill="#f2c06b"/><path d="M293.358 287.46 265.168 303.69 293.328 319.94 321.478 303.69 293.358 287.46Z" fill="url(#paint68_linear_136_3673)"/><path d="M265.168 303.69V307.76L293.338 324.02 321.478 307.76V303.69L293.328 319.94 265.168 303.69Z" fill="url(#paint69_linear_136_3673)"/><path d="M292.328 303.19 282.508 304.75C282.508 304.75 282.598 304.68 282.658 304.65L295.028 296.98C295.088 296.95 295.148 296.91 295.198 296.89L293.038 302.76C292.958 302.97 292.678 303.15 292.328 303.2V303.19Z" fill="#ffffff"/><path d="M296.899 297.13 303.349 300.86C303.949 301.21 303.899 301.84 303.219 302.25L291.289 309.64C290.619 310.06 289.569 310.11 288.969 309.76L282.519 306.03C282.389 305.95 282.279 305.86 282.219 305.76L292.119 304.25C292.639 304.17 293.119 304 293.489 303.77 293.859 303.54 294.129 303.25 294.249 302.93L296.429 296.95C296.599 296.98 296.759 297.04 296.889 297.12L296.899 297.13Z" fill="#ffffff"/><path d="M321.478 303.69 293.328 319.94 293.338 324.02 321.478 307.76V303.69Z" fill="url(#paint70_linear_136_3673)"/><path d="M449.561 264.18 429.691 275.63 449.541 287.08 469.381 275.63 449.561 264.18Z" fill="url(#paint71_linear_136_3673)"/><path d="M429.691 275.63V278.49L449.551 289.96 469.381 278.49V275.63L449.541 287.08 429.691 275.63Z" fill="url(#paint72_linear_136_3673)"/><path d="M456.991 276.929C456.931 276.289 456.451 275.689 455.711 275.239 454.971 274.779 453.991 274.469 452.921 274.409L451.781 274.349 451.721 273.669C451.661 273.029 451.181 272.429 450.441 271.979 449.701 271.519 448.721 271.209 447.651 271.149 445.521 271.039 443.891 271.989 444.001 273.259L444.061 273.949 444.111 274.529 444.191 275.369 444.481 278.579 449.821 278.859 451.231 278.929 452.201 278.979 453.341 279.039C455.471 279.159 457.101 278.209 456.991 276.929V276.929Z" fill="#ffffff"/><path d="M429.691 275.63V278.49L449.551 289.96 449.541 287.08 429.691 275.63Z" fill="url(#paint73_linear_136_3673)"/><path d="M353.129 273.999V276.959L370.699 287.109V272.829L353.129 273.999Z" fill="url(#paint74_linear_136_3673)"/><path d="M387.728 274.299 370.668 272.829V287.109L387.728 277.259V274.299Z" fill="url(#paint75_linear_136_3673)"/><path d="M370.699 284.159 353.129 274.009 370.159 264.149 387.729 274.299 370.699 284.159Z" fill="url(#paint76_linear_136_3673)"/><path d="M367.829 279.32 361.379 275.59C360.769 275.24 360.839 274.62 361.549 274.21 363.939 272.83 367.569 272.68 369.639 273.87L370.799 274.54C372.869 275.74 372.609 277.83 370.219 279.21 369.509 279.62 368.439 279.66 367.829 279.31V279.32Z" fill="#ffffff"/><path d="M370.317 271.079C371.787 270.229 374.167 270.229 375.637 271.079 377.107 271.929 377.107 273.299 375.637 274.149 374.167 274.999 371.787 274.999 370.317 274.149 368.847 273.299 368.847 271.929 370.317 271.079Z" fill="#ffffff"/><path d="M577.181 151.68 577.631 148.28 572.561 148.77 572.051 146.48 576.791 146.09 574.601 143.7 577.441 143 579.681 145.22 582.341 143.54 584.931 144.9 582.391 146.73 586.671 148.05 585.861 150.11 581.301 148.71 581.121 152.03 577.171 151.68H577.181Z" fill="#ffffff"/><path d="M468.488 226.349H468.508C469.288 226.169 470.248 226.349 471.288 226.949 473.958 228.479 476.128 232.129 476.108 235.089 476.108 236.219 475.768 237.079 475.218 237.619 474.928 237.899 474.288 238.249 473.898 238.349L472.248 239.249 465.648 227.859 467.458 226.889C467.748 226.619 468.098 226.429 468.498 226.339L468.488 226.349Z" fill="url(#paint77_linear_136_3673)"/><path d="M460.279 212.609C462.559 211.399 466.509 210.439 471.889 213.419 477.729 216.649 482.089 223.009 484.539 227.349 485.829 229.619 485.579 232.029 484.029 232.349L483.229 232.789 481.089 233.979 467.769 218.869C466.139 218.749 464.829 219.169 463.919 219.639 462.949 220.139 461.529 219.429 460.489 217.919V217.899C460.099 217.359 459.829 216.779 460.749 215.469L457.059 214.669 460.279 212.609V212.609Z" fill="url(#paint78_linear_136_3673)"/><path d="M453.201 199.509C456.531 197.729 462.951 196.049 471.941 200.699 481.751 205.789 488.551 215.659 491.861 221.359 493.161 223.599 492.941 226.029 491.421 226.439 491.311 226.469 490.501 226.979 490.381 226.979L488.121 228.239 477.631 213.959 463.121 205.149C460.041 205.119 457.711 206.029 456.301 206.809 455.321 207.349 453.841 206.569 452.831 204.989L452.811 204.959C452.811 204.959 452.781 204.899 452.761 204.869L451.831 204.849 449.961 201.769 451.801 200.339 453.211 199.509H453.201Z" fill="url(#paint79_linear_136_3673)"/><path d="M442.75 188.339 445.4 186.429C449.09 183.909 457.94 180.109 472.18 187.389 472.33 187.459 472.48 187.539 472.62 187.619 487.67 195.489 497.08 209.099 501.17 216.119 502.19 217.869 502.46 219.429 501.73 220.379L501 221.119 500.58 221.349C500.42 221.479 499.75 221.799 499.55 221.859L497.1 223.159 492.77 217.189 474.93 196.679 464.94 191.309C456.72 189.049 451.44 191.449 449.02 193.069 448.08 193.699 446.63 193.009 445.61 191.469 445.11 190.709 444.8 189.879 444.67 189.109L442.75 188.349V188.339Z" fill="url(#paint80_linear_136_3673)"/><path d="M442.95 193.329C443.96 194.869 445.39 195.549 446.31 194.929 449.31 192.909 456.85 189.669 469.1 196.159 469.23 196.229 469.35 196.289 469.48 196.359 482.31 203.309 490.11 214.929 493.31 220.539 494.34 222.339 496 223.429 497.23 223.099 498.77 222.689 499 220.269 497.69 218.019 493.66 211.039 484.39 197.499 469.56 189.629 469.41 189.549 469.27 189.479 469.12 189.399 455.09 182.119 446.37 185.849 442.73 188.329 441.61 189.089 441.7 191.439 442.93 193.319L442.95 193.329Z" fill="url(#paint81_linear_136_3673)"/><path d="M450.079 206.789C451.079 208.369 452.529 209.149 453.499 208.609 456.009 207.229 461.439 205.429 468.949 209.459 469.039 209.509 469.129 209.559 469.219 209.599 476.719 213.739 481.899 221.439 484.349 225.749 485.349 227.509 486.949 228.559 488.129 228.239 489.619 227.839 489.839 225.449 488.559 223.229 485.289 217.559 478.589 207.789 468.919 202.689 459.609 197.799 453.079 199.989 449.959 201.779 448.779 202.459 448.829 204.819 450.069 206.769L450.089 206.799 450.079 206.789Z" fill="url(#paint82_linear_136_3673)"/><path d="M480.83 234.05H480.84C482.37 233.74 482.61 231.35 481.34 229.09 478.92 224.78 474.63 218.45 468.87 215.22 463.57 212.25 459.67 213.18 457.42 214.37 456.14 215.05 456.24 217.59 457.62 219.62V219.64C458.65 221.14 460.06 221.85 461.01 221.36 462.56 220.56 465.28 219.91 468.83 221.94 472.59 224.09 475.55 228.55 477.21 231.54 478.16 233.24 479.67 234.28 480.82 234.06L480.83 234.05Z" fill="url(#paint83_linear_136_3673)"/><path d="M464.289 230.739C464.279 233.619 466.349 237.209 468.949 238.769 471.569 240.349 473.739 239.279 473.759 236.339 473.779 233.399 471.639 229.769 469.009 228.239 466.409 226.729 464.309 227.849 464.299 230.729L464.289 230.739Z" fill="url(#paint84_linear_136_3673)"/></g></svg>